<mxfile host="app.diagrams.net" modified="2022-12-23T00:51:32.060Z" agent="5.0 (Windows NT 10.0; Win64; x64) AppleWebKit/537.36 (KHTML, like Gecko) Chrome/108.0.0.0 Safari/537.36" version="20.7.4" etag="rLK8rgAGRMhdmfP-KLoy" type="github">
  <diagram id="DNW1tbRMDURQ7lq9GIRr" name="페이지-1">
    <mxGraphModel dx="1002" dy="1974" grid="1" gridSize="10" guides="1" tooltips="1" connect="1" arrows="1" fold="1" page="1" pageScale="1" pageWidth="827" pageHeight="1169" math="0" shadow="0">
      <root>
        <mxCell id="0" />
        <mxCell id="1" parent="0" />
        <mxCell id="XJyRmB96XC4GH5hGJv5W-1" value="" style="shape=image;verticalLabelPosition=bottom;labelBackgroundColor=default;verticalAlign=top;aspect=fixed;imageAspect=0;image=http://www.kukinews.com/data/kuk/image/2021/06/10/kuk202106100361.jpg;" vertex="1" parent="1">
          <mxGeometry x="60.360000000000014" y="-990" width="241.27" height="510" as="geometry" />
        </mxCell>
        <mxCell id="XJyRmB96XC4GH5hGJv5W-5" style="edgeStyle=orthogonalEdgeStyle;rounded=0;orthogonalLoop=1;jettySize=auto;html=1;entryX=0;entryY=0.5;entryDx=0;entryDy=0;strokeColor=#00FFFF;" edge="1" parent="1" target="XJyRmB96XC4GH5hGJv5W-3">
          <mxGeometry relative="1" as="geometry">
            <mxPoint x="280" y="-880" as="sourcePoint" />
          </mxGeometry>
        </mxCell>
        <mxCell id="XJyRmB96XC4GH5hGJv5W-2" value="&lt;h1&gt;레퍼런스 게임 타이틀 씬&lt;/h1&gt;&lt;p&gt;- 씬 이미지&lt;/p&gt;&lt;p&gt;- 타이틀 텍스트&lt;/p&gt;&lt;p&gt;- &quot;TAP TO START&quot;&lt;/p&gt;" style="text;html=1;strokeColor=#666666;fillColor=#f5f5f5;spacing=5;spacingTop=-20;whiteSpace=wrap;overflow=hidden;rounded=0;fontColor=#333333;" vertex="1" parent="1">
          <mxGeometry x="40" y="-1120" width="282" height="120" as="geometry" />
        </mxCell>
        <mxCell id="XJyRmB96XC4GH5hGJv5W-13" style="edgeStyle=orthogonalEdgeStyle;rounded=0;orthogonalLoop=1;jettySize=auto;html=1;exitX=0.5;exitY=1;exitDx=0;exitDy=0;entryX=0.5;entryY=0;entryDx=0;entryDy=0;strokeColor=#1A1A1A;" edge="1" parent="1" source="XJyRmB96XC4GH5hGJv5W-3" target="XJyRmB96XC4GH5hGJv5W-11">
          <mxGeometry relative="1" as="geometry" />
        </mxCell>
        <mxCell id="XJyRmB96XC4GH5hGJv5W-3" value="게임 타이틀 출력" style="rounded=1;whiteSpace=wrap;html=1;fillColor=#dae8fc;strokeColor=#6c8ebf;" vertex="1" parent="1">
          <mxGeometry x="455" y="-910" width="120" height="60" as="geometry" />
        </mxCell>
        <mxCell id="XJyRmB96XC4GH5hGJv5W-6" value="" style="swimlane;startSize=0;strokeColor=#00FFFF;dashed=1;" vertex="1" parent="1">
          <mxGeometry x="81" y="-920" width="240" height="420" as="geometry" />
        </mxCell>
        <mxCell id="XJyRmB96XC4GH5hGJv5W-18" value="" style="swimlane;startSize=0;strokeColor=#FF6666;dashed=1;" vertex="1" parent="XJyRmB96XC4GH5hGJv5W-6">
          <mxGeometry x="-40" y="-20" width="280" height="440" as="geometry" />
        </mxCell>
        <mxCell id="XJyRmB96XC4GH5hGJv5W-8" style="edgeStyle=orthogonalEdgeStyle;rounded=0;orthogonalLoop=1;jettySize=auto;html=1;entryX=0.5;entryY=0;entryDx=0;entryDy=0;strokeColor=#00FFFF;exitX=0.5;exitY=1;exitDx=0;exitDy=0;" edge="1" parent="1" target="XJyRmB96XC4GH5hGJv5W-9" source="XJyRmB96XC4GH5hGJv5W-10">
          <mxGeometry relative="1" as="geometry">
            <mxPoint x="280" y="-555" as="sourcePoint" />
          </mxGeometry>
        </mxCell>
        <mxCell id="XJyRmB96XC4GH5hGJv5W-15" style="edgeStyle=orthogonalEdgeStyle;rounded=0;orthogonalLoop=1;jettySize=auto;html=1;strokeColor=#1A1A1A;exitX=0.5;exitY=1;exitDx=0;exitDy=0;" edge="1" parent="1" source="XJyRmB96XC4GH5hGJv5W-17" target="XJyRmB96XC4GH5hGJv5W-14">
          <mxGeometry relative="1" as="geometry" />
        </mxCell>
        <mxCell id="XJyRmB96XC4GH5hGJv5W-16" style="edgeStyle=orthogonalEdgeStyle;rounded=0;orthogonalLoop=1;jettySize=auto;html=1;strokeColor=#1A1A1A;entryX=0.5;entryY=0;entryDx=0;entryDy=0;exitX=0.5;exitY=1;exitDx=0;exitDy=0;" edge="1" parent="1" source="XJyRmB96XC4GH5hGJv5W-9" target="XJyRmB96XC4GH5hGJv5W-17">
          <mxGeometry relative="1" as="geometry">
            <mxPoint x="470" y="-640.0000000000002" as="targetPoint" />
            <mxPoint x="445" y="-520" as="sourcePoint" />
          </mxGeometry>
        </mxCell>
        <mxCell id="XJyRmB96XC4GH5hGJv5W-9" value="&lt;span style=&quot;color: rgb(51, 51, 51); text-align: left;&quot;&gt;&quot;TAP TO START&quot; 출력&lt;br&gt;&amp;amp; 터치 받아서 시작 시켜야함.&lt;br&gt;&lt;/span&gt;" style="rounded=1;whiteSpace=wrap;html=1;fillColor=#dae8fc;strokeColor=#6c8ebf;" vertex="1" parent="1">
          <mxGeometry x="86" y="-440" width="190" height="80" as="geometry" />
        </mxCell>
        <mxCell id="XJyRmB96XC4GH5hGJv5W-10" value="" style="swimlane;startSize=0;strokeColor=#00FFFF;dashed=1;" vertex="1" parent="1">
          <mxGeometry x="81" y="-600" width="200" height="90" as="geometry" />
        </mxCell>
        <mxCell id="XJyRmB96XC4GH5hGJv5W-11" value="//타이틀 출력&lt;br&gt;Console.WhiteLine(&quot;모험가 이야기&quot;);&lt;br&gt;" style="shape=process;whiteSpace=wrap;html=1;backgroundOutline=1;strokeColor=#1A1A1A;" vertex="1" parent="1">
          <mxGeometry x="380" y="-790" width="270" height="65" as="geometry" />
        </mxCell>
        <mxCell id="XJyRmB96XC4GH5hGJv5W-14" value="string tapToStart = string.Empty;&lt;br&gt;tapToStart =&amp;nbsp;Console.ReadLine()" style="shape=process;whiteSpace=wrap;html=1;backgroundOutline=1;strokeColor=#1A1A1A;" vertex="1" parent="1">
          <mxGeometry x="31" y="-160" width="300" height="65" as="geometry" />
        </mxCell>
        <mxCell id="XJyRmB96XC4GH5hGJv5W-17" value="Console.WhiteLine(&lt;span style=&quot;color: rgb(51, 51, 51); text-align: left;&quot;&gt;&quot;TAP TO START&quot;&lt;/span&gt;);" style="shape=process;whiteSpace=wrap;html=1;backgroundOutline=1;strokeColor=#1A1A1A;" vertex="1" parent="1">
          <mxGeometry x="31" y="-310" width="300" height="65" as="geometry" />
        </mxCell>
        <mxCell id="XJyRmB96XC4GH5hGJv5W-19" style="edgeStyle=orthogonalEdgeStyle;rounded=0;orthogonalLoop=1;jettySize=auto;html=1;strokeColor=#b85450;entryX=0;entryY=0.5;entryDx=0;entryDy=0;fillColor=#f8cecc;exitX=1;exitY=0.75;exitDx=0;exitDy=0;" edge="1" parent="1" source="XJyRmB96XC4GH5hGJv5W-18" target="XJyRmB96XC4GH5hGJv5W-20">
          <mxGeometry relative="1" as="geometry">
            <mxPoint x="570" y="-640.0000000000002" as="targetPoint" />
          </mxGeometry>
        </mxCell>
        <mxCell id="XJyRmB96XC4GH5hGJv5W-20" value="BG 출력" style="rounded=1;whiteSpace=wrap;html=1;fillColor=#f8cecc;strokeColor=#b85450;" vertex="1" parent="1">
          <mxGeometry x="470" y="-640" width="120" height="60" as="geometry" />
        </mxCell>
        <mxCell id="XJyRmB96XC4GH5hGJv5W-21" value="Console.WhiteLine();" style="shape=process;whiteSpace=wrap;html=1;backgroundOutline=1;strokeColor=#1A1A1A;" vertex="1" parent="1">
          <mxGeometry x="395" y="-450" width="270" height="65" as="geometry" />
        </mxCell>
        <mxCell id="XJyRmB96XC4GH5hGJv5W-22" value="&lt;br&gt;&lt;span style=&quot;color: rgb(0, 0, 0); font-family: Helvetica; font-size: 12px; font-style: normal; font-variant-ligatures: normal; font-variant-caps: normal; font-weight: 400; letter-spacing: normal; orphans: 2; text-align: center; text-indent: 0px; text-transform: none; widows: 2; word-spacing: 0px; -webkit-text-stroke-width: 0px; background-color: rgb(251, 251, 251); text-decoration-thickness: initial; text-decoration-style: initial; text-decoration-color: initial; float: none; display: inline !important;&quot;&gt;이미지 출력은 &lt;br&gt;콘솔에서 어떻게 하지..?&lt;/span&gt;" style="ellipse;shape=cloud;whiteSpace=wrap;html=1;dashed=1;strokeColor=#FF6666;" vertex="1" parent="1">
          <mxGeometry x="610" y="-665" width="190" height="110" as="geometry" />
        </mxCell>
        <mxCell id="XJyRmB96XC4GH5hGJv5W-23" value="&lt;br&gt;&lt;span style=&quot;color: rgb(0, 0, 0); font-family: Helvetica; font-size: 12px; font-style: normal; font-variant-ligatures: normal; font-variant-caps: normal; font-weight: 400; letter-spacing: normal; orphans: 2; text-align: center; text-indent: 0px; text-transform: none; widows: 2; word-spacing: 0px; -webkit-text-stroke-width: 0px; background-color: rgb(251, 251, 251); text-decoration-thickness: initial; text-decoration-style: initial; text-decoration-color: initial; float: none; display: inline !important;&quot;&gt;기호 알파벳 등 &quot;Console.WhiteLine();&quot;&lt;br&gt;로 찍어보자..&lt;/span&gt;&lt;br&gt;콘솔에 그림 그리는 방법 활요해서 뭐라도 배경느낌&amp;nbsp;" style="rounded=1;whiteSpace=wrap;html=1;dashed=1;strokeColor=#FF6666;" vertex="1" parent="1">
          <mxGeometry x="390" y="-530" width="300" height="60" as="geometry" />
        </mxCell>
      </root>
    </mxGraphModel>
  </diagram>
</mxfile>
